<svg xmlns="http://www.w3.org/2000/svg" width="72" height="65" viewBox="0 0 72 65">
  <path fill="context-fill" fill-opacity="context-fill-opacity" d="M0.0 0.0C0.0 0.0 0.0 65.0 0.0 65.0C0.0 65.0 72.0 65.0 72.0 65.0C72.0 65.0 72.0 0.0 72.0 0.0C72.0 0.0 52.9019692 0.0 52.9019692 0.0C52.9019692 0.0 0.0 0.0 0.0 0.0C0.0 0.0 0.0 0.0 0.0 0.0M65.0 58.0C65.0 58.0 6.0 58.0 6.0 58.0C6.0 58.0 6.0 25.0 6.0 25.0C6.0 25.0 65.0 25.0 65.0 25.0C65.0 25.0 65.0 58.0 65.0 58.0C65.0 58.0 65.0 58.0 65.0 58.0M6.0 10.0C6.0 10.0 10.0 10.0 10.0 10.0C10.0 10.0 10.0 14.0 10.0 14.0C10.0 14.0 6.0 14.0 6.0 14.0C6.0 14.0 6.0 10.0 6.0 10.0C6.0 10.0 6.0 10.0 6.0 10.0M14.0 10.0C14.0 10.0 18.0 10.0 18.0 10.0C18.0 10.0 18.0 14.0 18.0 14.0C18.0 14.0 14.0 14.0 14.0 14.0C14.0 14.0 14.0 10.0 14.0 10.0C14.0 10.0 14.0 10.0 14.0 10.0M22.0 10.0C22.0 10.0 26.0 10.0 26.0 10.0C26.0 10.0 26.0 14.0 26.0 14.0C26.0 14.0 22.0 14.0 22.0 14.0C22.0 14.0 22.0 10.0 22.0 10.0C22.0 10.0 22.0 10.0 22.0 10.0" />
</svg>
