<svg xmlns="http://www.w3.org/2000/svg" width="72" height="54" viewBox="0 0 72 54">
  <path fill="context-fill" fill-opacity="context-fill-opacity" d="M14.0487805 54.0C6.28990244 54.0 0.0 47.3306322 0.0 39.1034585C0.0 32.0105634 4.68716488 26.0867675 10.9481707 24.585103C10.6902 23.574652 10.5365854 22.5107596 10.5365854 21.4138156C10.5365854 14.7292347 15.6471278 9.3103384 21.9512195 9.3103384C24.8076351 9.3103384 27.4126741 10.4393194 29.4146341 12.2780088C32.1344254 5.0777841 38.77452 0.0 46.5365854 0.0C56.7201249 0.0 64.9756098 8.7536733 64.9756098 19.5517479C64.9756098 20.7691677 64.8471688 21.9453428 64.6463415 23.1013144C69.0576849 26.0679606 72.0 31.2693674 72.0 37.2413909C72.0 46.5256603 64.9510244 54.0 56.195122 54.0C56.195122 54.0 14.0487805 54.0 14.0487805 54.0C14.0487805 54.0 14.0487805 54.0 14.0487805 54.0" />
</svg>
