<svg xmlns="http://www.w3.org/2000/svg" width="70" height="63" viewBox="0 0 70 63">
  <g fill="context-fill" fill-opacity="context-fill-opacity">
    <path d="M64.0 2.0C64.0 2.0 4.0 2.0 4.0 2.0C2.8954305 2.0 2.0 2.81148389 2.0 3.8125C2.0 3.8125 2.0 58.1875 2.0 58.1875C2.0 59.1885161 2.8954305 60.0 4.0 60.0C4.0 60.0 36.0 60.0 36.0 60.0C36.0 60.0 36.0 56.375 36.0 56.375C36.0 56.375 6.0 56.375 6.0 56.375C6.0 56.375 6.0 41.875 6.0 41.875C6.0 41.875 38.0 41.875 38.0 41.875C38.0 41.875 38.0 38.25 38.0 38.25C38.0 38.25 6.0 38.25 6.0 38.25C6.0 38.25 6.0 23.75 6.0 23.75C6.0 23.75 62.0 23.75 62.0 23.75C62.0 23.75 62.0 36.4375 62.0 36.4375C62.0 36.4375 66.0 36.4375 66.0 36.4375C66.0 36.4375 66.0 3.8125 66.0 3.8125C66.0 2.81148389 65.1045695 2.0 64.0 2.0C64.0 2.0 64.0 2.0 64.0 2.0M62.0 20.125C62.0 20.125 6.0 20.125 6.0 20.125C6.0 20.125 6.0 5.625 6.0 5.625C6.0 5.625 62.0 5.625 62.0 5.625C62.0 5.625 62.0 20.125 62.0 20.125C62.0 20.125 62.0 20.125 62.0 20.125" />
    <path d="M24.0 47.0C24.0 47.0 24.0 51.0 24.0 51.0C24.0 51.0 20.0 51.0 20.0 51.0C20.0 51.0 20.0 47.0 20.0 47.0C20.0 47.0 24.0 47.0 24.0 47.0C24.0 47.0 24.0 47.0 24.0 47.0M16.0 47.0C16.0 47.0 16.0 51.0 16.0 51.0C16.0 51.0 12.0 51.0 12.0 51.0C12.0 51.0 12.0 47.0 12.0 47.0C12.0 47.0 16.0 47.0 16.0 47.0C16.0 47.0 16.0 47.0 16.0 47.0M56.0 29.0C56.0 29.0 56.0 33.0 56.0 33.0C56.0 33.0 52.0 33.0 52.0 33.0C52.0 33.0 52.0 29.0 52.0 29.0C52.0 29.0 56.0 29.0 56.0 29.0C56.0 29.0 56.0 29.0 56.0 29.0M48.0 29.0C48.0 29.0 48.0 33.0 48.0 33.0C48.0 33.0 12.0 33.0 12.0 33.0C12.0 33.0 12.0 29.0 12.0 29.0C12.0 29.0 48.0 29.0 48.0 29.0C48.0 29.0 48.0 29.0 48.0 29.0M22.0 11.0C22.0 11.0 22.0 15.0 22.0 15.0C22.0 15.0 10.0 15.0 10.0 15.0C10.0 15.0 10.0 11.0 10.0 11.0C10.0 11.0 22.0 11.0 22.0 11.0C22.0 11.0 22.0 11.0 22.0 11.0M70.0 0.0C70.0 0.0 70.0 36.5 70.0 36.5C70.0 36.5 65.0 36.5 65.0 36.5C65.0 36.5 65.0 4.5 65.0 4.5C65.0 4.5 5.0 4.5 5.0 4.5C5.0 4.5 5.0 58.5 5.0 58.5C5.0 58.5 36.0 58.5 36.0 58.5C36.0 58.5 36.0 63.0 36.0 63.0C36.0 63.0 0.0 63.0 0.0 63.0C0.0 63.0 0.0 0.0 0.0 0.0C0.0 0.0 70.0 0.0 70.0 0.0C70.0 0.0 70.0 0.0 70.0 0.0M32.0 47.0C32.0 47.0 32.0 51.0 32.0 51.0C32.0 51.0 28.0 51.0 28.0 51.0C28.0 51.0 28.0 47.0 28.0 47.0C28.0 47.0 32.0 47.0 32.0 47.0C32.0 47.0 32.0 47.0 32.0 47.0M54.0 11.0C54.0 11.0 54.0 15.0 54.0 15.0C54.0 15.0 50.0 15.0 50.0 15.0C50.0 15.0 50.0 11.0 50.0 11.0C50.0 11.0 54.0 11.0 54.0 11.0C54.0 11.0 54.0 11.0 54.0 11.0M46.0 11.0C46.0 11.0 46.0 15.0 46.0 15.0C46.0 15.0 42.0 15.0 42.0 15.0C42.0 15.0 42.0 11.0 42.0 11.0C42.0 11.0 46.0 11.0 46.0 11.0C46.0 11.0 46.0 11.0 46.0 11.0M38.0 11.0C38.0 11.0 38.0 15.0 38.0 15.0C38.0 15.0 34.0 15.0 34.0 15.0C34.0 15.0 34.0 11.0 34.0 11.0C34.0 11.0 38.0 11.0 38.0 11.0C38.0 11.0 38.0 11.0 38.0 11.0M30.0 11.0C30.0 11.0 30.0 15.0 30.0 15.0C30.0 15.0 26.0 15.0 26.0 15.0C26.0 15.0 26.0 11.0 26.0 11.0C26.0 11.0 30.0 11.0 30.0 11.0C30.0 11.0 30.0 11.0 30.0 11.0" />
    <path d="M61.0 46.0C61.0 46.0 59.0 46.0 59.0 46.0C59.0 46.0 59.0 40.0 59.0 40.0C59.0 38.8954305 58.1045695 38.0 57.0 38.0C57.0 38.0 49.0 38.0 49.0 38.0C47.8954305 38.0 47.0 38.8954305 47.0 40.0C47.0 40.0 47.0 46.0 47.0 46.0C47.0 46.0 45.0 46.0 45.0 46.0C43.8954305 46.0 43.0 46.8954305 43.0 48.0C43.0 48.0 43.0 60.0 43.0 60.0C43.0 61.1045695 43.8954305 62.0 45.0 62.0C45.0 62.0 61.0 62.0 61.0 62.0C62.1045695 62.0 63.0 61.1045695 63.0 60.0C63.0 60.0 63.0 48.0 63.0 48.0C63.0 46.8954305 62.1045695 46.0 61.0 46.0C61.0 46.0 61.0 46.0 61.0 46.0M51.0 42.0C51.0 42.0 55.0 42.0 55.0 42.0C55.0 42.0 55.0 46.0 55.0 46.0C55.0 46.0 51.0 46.0 51.0 46.0C51.0 46.0 51.0 42.0 51.0 42.0C51.0 42.0 51.0 42.0 51.0 42.0M59.0 58.0C59.0 58.0 47.0 58.0 47.0 58.0C47.0 58.0 47.0 50.0 47.0 50.0C47.0 50.0 59.0 50.0 59.0 50.0C59.0 50.0 59.0 58.0 59.0 58.0C59.0 58.0 59.0 58.0 59.0 58.0" />
  </g>
</svg>
