<svg xmlns="http://www.w3.org/2000/svg" width="16" height="16" viewBox="0 0 16 16">
  <path d="M8.01435945 13.726867125C8.01435945 13.726867125 8.01435945 12.87830525 8.01435945 12.87830525C10.70227825 12.87051775 12.87869375 10.689666 12.87869375 7.9998060125C12.87869375 5.310140275 10.70227825 3.1292621 8.01435945 3.121500325C8.01435945 3.121500325 8.01435945 2.272938975 8.01435945 2.272938975C11.170899375 2.280892725 13.727061375 4.8415202875 13.727061375 7.9998060125C13.727061375 11.158285375 11.170899375 13.719105 8.01435945 13.726867125C8.01435945 13.726867125 8.01435945 13.726867125 8.01435945 13.726867125M8.01435945 10.756805625C9.5304373 10.74884925 10.75758175 9.5180185125 10.75758175 7.9998060125C10.75758175 6.4817875 9.5304373 5.2509564125 8.01435945 5.2430005625C8.01435945 5.2430005625 8.01435945 4.3946332875 8.01435945 4.3946332875C9.999251625 4.4023945375 11.60614275 6.013167425 11.60614275 7.9998060125C11.60614275 9.986639375 9.999251625 11.597411125 8.01435945 11.605172375C8.01435945 11.605172375 8.01435945 10.756805625 8.01435945 10.756805625M8.01435945 6.5157454625C8.8276046625 6.5235067125 9.484837025 7.184620575 9.484837025 7.9998060125C9.484837025 8.815185875 8.8276046625 9.4762985125 8.01435945 9.4840608125C8.01435945 9.4840608125 8.01435945 6.5157454625 8.01435945 6.5157454625M1.0 7.9998060125C1.0 11.8659705 4.1338360375 15.0 8.0000000875 15.0C11.8659705 15.0 15.0 11.8659705 15.0 7.9998060125C15.0 4.1338360375 11.8659705 1.0 8.0000000875 1.0C4.1338360375 1.0 1.0 4.1338360375 1.0 7.9998060125C1.0 7.9998060125 1.0 7.9998060125 1.0 7.9998060125" fill-rule="even-odd" fill-opacity="context-fill-opacity" fill="context-fill" />
</svg>
