<svg xmlns="http://www.w3.org/2000/svg" width="16" height="16" viewBox="0 0 16 16">
  <path d="M15.8630401732 14.127C15.8630401732 14.127 12.6649598146 7.716 12.6649598146 7.716C12.4469357756 7.279935 12.0003277145 7.0043454 11.5116853046 7.0043454C11.0230428947 7.0043454 10.5764348336 7.279935 10.3584107946 7.716C10.3584107946 7.716 7.1573218938 14.127 7.1573218938 14.127C6.95646770542 14.527294 6.97733695982 15.002669 7.21250176686 15.38393C7.4476665739 15.765191 7.86372750208 15.998191 8.3126020986 16.0C8.3126020986 16.0 14.7077599684 16.0 14.7077599684 16.0C15.1566344646 15.9982 15.572695794 15.765191 15.8078605007 15.38393C16.0430252075 15.002669 16.0638944619 14.527294 15.8630371647 14.127C15.8630371647 14.127 15.8630401732 14.127 15.8630401732 14.127" fill="#ffbf00" />
  <path d="M11.5106824572 8.0C11.6210488221 7.99691 11.7223975832 8.060469 11.7674113916 8.161C11.7674113916 8.161 14.9644889028 14.573 14.9644889028 14.573C15.0126456349 14.66534 15.0076715118 14.776305 14.9514518866 14.864C14.9011992034 14.95041 14.8079143382 15.002854 14.7077599684 15.001048C14.7077599684 15.001048 8.3126020986 15.001048 8.3126020986 15.001048C8.2124480296 15.002854 8.1191607576 14.950409 8.0689101804 14.864C8.0124814615 14.77637 8.0075053327 14.665298 8.0558731642 14.573C8.0558731642 14.573 11.2529506754 8.161 11.2529506754 8.161C11.2981038796 8.0601247 11.3999560701 7.9964997 11.5106824572 8.0M11.5106824572 6.9999751C11.0194557096 6.9969427 10.5701148893 7.2754275 10.3554022524 7.716C10.3554022524 7.716 7.1573218938 14.127 7.1573218938 14.127C6.95646770542 14.527294 6.97733695982 15.002669 7.21250176686 15.38393C7.4476665739 15.765191 7.86372750208 15.998191 8.3126020986 16.0C8.3126020986 16.0 14.7077599684 16.0 14.7077599684 16.0C15.1566344646 15.9982 15.572695794 15.765191 15.8078605007 15.38393C16.0430252075 15.002669 16.0638944619 14.527294 15.8630371647 14.127C15.8630371647 14.127 12.6649598146 7.716 12.6649598146 7.716C12.4504036219 7.2757546 12.0015481798 6.9973287 11.5106824572 6.9999751C11.5106824572 6.9999751 11.5106824572 6.9999751 11.5106824572 6.9999751" opacity="0.35" fill="#d76e00" />
  <path d="M11.5327451 12.0C11.8096733867 12.0 12.0341688 11.776142 12.0341688 11.5C12.0341688 11.5 12.0341688 9.5 12.0341688 9.5C12.0341688 9.2238576 11.8096733867 9.0 11.5327451 9.0C11.2558168133 9.0 11.0313214 9.2238576 11.0313214 9.5C11.0313214 9.5 11.0313214 11.5 11.0313214 11.5C11.0313214 11.776142 11.2558168133 12.0 11.5327451 12.0C11.5327451 12.0 11.5327451 12.0 11.5327451 12.0M11.5327451 12.809C11.1500294496 12.809 10.8397775466 13.118371 10.8397775466 13.5C10.8397775466 13.881629 11.1500294496 14.191 11.5327451 14.191C11.9154607504 14.191 12.2257126534 13.881629 12.2257126534 13.5C12.2257126534 13.118371 11.9154607504 12.809 11.5327451 12.809C11.5327451 12.809 11.5327451 12.809 11.5327451 12.809" fill="#ffffff" />
  <path d="M7.08030321348 6.552C7.90163523408 6.56 8.5645173655 7.225 8.5645173655 8.046C8.5645173655 8.866 7.90163523408 9.532 7.08030321348 9.54C7.08030321348 9.54 7.08030321348 6.552 7.08030321348 6.552M6.30610502068 13.756C6.30610502068 13.756 9.4991711423 7.353 9.4991711423 7.353C9.5453021227 7.259 9.6144985933 7.184 9.6716608951 7.098C9.2845617987 6.039 8.2756973143 5.277 7.08030321348 5.271C7.08030321348 5.271 7.08030321348 4.417 7.08030321348 4.417C8.5043465215 4.423 9.7238089599 5.251 10.3164917733 6.443C10.6795225321 6.21 11.1067355245 6.074 11.5519997701 6.074C11.5519997701 6.074 11.5620282441 6.074 11.5620282441 6.074C11.5620282441 6.074 11.5640339389 6.074 11.5640339389 6.074C11.5660396337 6.074 11.5690481759 6.075 11.5710538707 6.075C10.8108955415 4.35 9.0900094031 3.141 7.08030321348 3.135C7.08030321348 3.135 7.08030321348 2.281 7.08030321348 2.281C9.6716608951 2.288 11.8618796167 3.993 12.5889439817 6.34C13.0231769059 6.561 13.3922247491 6.9 13.6088397875 7.344C13.6088397875 7.344 14.1162805719 8.361 14.1162805719 8.361C14.1202919615 8.256 14.1313232829 8.152 14.1313232829 8.046C14.1313232829 4.155 10.9683425833 1.0 7.06626334988 1.0C3.16318126908 1.0 0.00020056948 4.155 0.00020056948 8.046C0.00020056948 11.603 2.64571201068 14.536 6.08046435568 15.015C6.03633907008 14.595 6.10252699848 14.16 6.30610502068 13.756C6.30610502068 13.756 6.30610502068 13.756 6.30610502068 13.756" fill-opacity="context-fill-opacity" fill="context-fill" />
</svg>
