<svg xmlns="http://www.w3.org/2000/svg" width="16" height="16" viewBox="0 0 16 16">
  <path d="M3.409559 13.112147C3.409559 13.112147 8.200807 8.103115 8.200807 8.103115C8.200807 8.103115 8.200807 6.516403 8.200807 6.516403C8.620819 6.516403 9.009719 6.703075 9.274171 6.998639C9.274171 6.998639 10.160863 6.080835 10.160863 6.080835C9.663071 5.567487 8.978607 5.256367 8.200807 5.256367C8.200807 5.256367 8.200807 4.400787 8.200807 4.400787C9.196391 4.400787 10.098639 4.805243 10.736435 5.458595C10.736435 5.458595 11.623127 4.540791 11.623127 4.540791C10.751991 3.669655 9.538623 3.125195 8.200807 3.125195C8.200807 3.125195 8.200807 2.269615 8.200807 2.269615C9.756407 2.269615 11.172003 2.907411 12.214255 3.918551C12.214255 3.918551 13.100947 3.000747 13.100947 3.000747C11.825355 1.756267 10.098639 0.994023 8.185251 0.994023C4.311807 0.994023 1.185051 4.120779 1.185051 7.994223C1.185051 10.016503 2.040631 11.836555 3.409559 13.112147C3.409559 13.112147 3.409559 13.112147 3.409559 13.112147" fill-opacity="context-fill-opacity" fill="context-fill" />
  <path d="M14.205423 4.416343C14.205423 4.416343 13.287619 5.380815 13.287619 5.380815C13.692075 6.158615 13.909859 7.045307 13.909859 7.994223C13.909859 11.152091 11.358675 13.718831 8.200807 13.718831C8.200807 13.718831 8.200807 12.863251 8.200807 12.863251C10.891995 12.863251 13.069835 10.669855 13.069835 7.978667C13.069835 7.278647 12.929831 6.625295 12.665379 6.018611C12.665379 6.018611 11.685351 7.045307 11.685351 7.045307C11.763131 7.340871 11.809799 7.651991 11.809799 7.963111C11.809799 9.954279 10.207531 11.556547 8.216363 11.572103C8.216363 11.572103 8.216363 10.716523 8.216363 10.716523C9.725295 10.700967 10.954219 9.472043 10.954219 7.963111C10.954219 7.916443 10.954219 7.854219 10.954219 7.807551C10.954219 7.807551 4.887379 14.169955 4.887379 14.169955C5.867407 14.698859 6.987439 14.994423 8.185251 14.994423C12.058695 14.994423 15.185451 11.867667 15.185451 7.994223C15.185451 6.687519 14.827663 5.474151 14.205423 4.416343C14.205423 4.416343 14.205423 4.416343 14.205423 4.416343" fill-opacity="context-fill-opacity" fill="context-fill" />
  <path d="M1.791735 15.461103C1.402835 15.461103 1.045047 15.212207 0.889487 14.838863C0.733927 14.465519 0.827267 14.014395 1.107271 13.734387C1.107271 13.734387 13.458735 0.822907 13.458735 0.822907C13.847635 0.434007 14.454319 0.449563 14.827663 0.838467C15.201007 1.227367 15.216563 1.865163 14.843223 2.269619C14.843223 2.269619 2.491759 15.181099 2.491759 15.181099C2.289531 15.352215 2.040635 15.461107 1.791739 15.461107C1.791739 15.461107 1.791735 15.461103 1.791735 15.461103" fill="#ff0039" />
</svg>
